<svg height="512" viewBox="0 0 128 128" width="512" xmlns="http://www.w3.org/2000/svg"><path d="m110.327 16.021a5.006 5.006 0 0 0 -5-5h-71.252a5.006 5.006 0 0 0 -5 5v3.807h-2.948a4.455 4.455 0 0 0 0 8.91h2.948v5.11h-2.948a4.455 4.455 0 0 0 0 8.909h2.948v5.111h-2.948a4.455 4.455 0 0 0 0 8.909h2.948v5.111h-2.948a4.454 4.454 0 1 0 0 8.908h2.948v5.111h-2.948a4.455 4.455 0 0 0 0 8.909h2.948v5.111h-2.948a4.455 4.455 0 0 0 0 8.909h2.948v4.426h-2.948a4.454 4.454 0 1 0 0 8.908h2.948v3.809a5.006 5.006 0 0 0 5 5h71.252a5.006 5.006 0 0 0 5-5z" fill="#e6e7e8"/><rect fill="#d4fbff" height="107.957" rx="4" width="79.252" x="26.075" y="8.021"/><rect fill="#fa759e" height="11.25" rx="2" width="11.25" x="43.201" y="24.766"/><rect fill="#fa759e" height="11.25" rx="2" width="11.25" x="43.201" y="45.766"/><rect fill="#fa759e" height="11.25" rx="2" width="11.25" x="43.201" y="66.766"/><path d="m101.327 115.978h-71.252a4 4 0 0 1 -4-4v-3a4 4 0 0 0 4 4h71.252a4 4 0 0 0 4-4v3a4 4 0 0 1 -4 4z" fill="#fff"/><rect fill="#0089ef" height="6.909" rx="3.454" width="14.805" x="18.673" y="16.829"/><rect fill="#0089ef" height="6.909" rx="3.454" width="14.805" x="18.673" y="30.848"/><rect fill="#0089ef" height="6.909" rx="3.454" width="14.805" x="18.673" y="44.868"/><rect fill="#0089ef" height="6.909" rx="3.454" width="14.805" x="18.673" y="58.888"/><rect fill="#0089ef" height="6.909" rx="3.454" width="14.805" x="18.673" y="72.907"/><rect fill="#0089ef" height="6.909" rx="3.454" width="14.805" x="18.673" y="86.927"/><rect fill="#0089ef" height="6.909" rx="3.454" width="14.805" x="18.673" y="100.262"/><g fill="#3a2c60"><path d="m93.2 25.39h-31a1 1 0 0 0 0 2h31a1 1 0 0 0 0-2z"/><path d="m93.2 33.39h-31a1 1 0 0 0 0 2h31a1 1 0 0 0 0-2z"/><path d="m57.466 23.6a1 1 0 0 0 -1.413.052l-1.221 1.308a2.989 2.989 0 0 0 -2.381-1.2h-7.251a3 3 0 0 0 -3 3v7.25a3 3 0 0 0 3 3h7.25a3 3 0 0 0 3-3v-6.779l2.066-2.222a1 1 0 0 0 -.05-1.409zm-4.015 10.42a1 1 0 0 1 -1 1h-7.251a1 1 0 0 1 -1-1v-7.25a1 1 0 0 1 1-1h7.25a.989.989 0 0 1 .947.737l-4.352 4.679-2.353-2.606a1 1 0 1 0 -1.484 1.34l3.084 3.417a1 1 0 0 0 .734.33h.008a1 1 0 0 0 .732-.319l3.684-3.962z"/><path d="m93.2 46.39h-31a1 1 0 0 0 0 2h31a1 1 0 0 0 0-2z"/><path d="m93.2 54.39h-31a1 1 0 0 0 0 2h31a1 1 0 0 0 0-2z"/><path d="m57.466 44.6a1 1 0 0 0 -1.413.052l-1.221 1.308a2.989 2.989 0 0 0 -2.381-1.2h-7.251a3 3 0 0 0 -3 3v7.25a3 3 0 0 0 3 3h7.25a3 3 0 0 0 3-3v-6.779l2.066-2.222a1 1 0 0 0 -.05-1.409zm-4.015 10.42a1 1 0 0 1 -1 1h-7.251a1 1 0 0 1 -1-1v-7.25a1 1 0 0 1 1-1h7.25a.989.989 0 0 1 .947.737l-4.352 4.679-2.353-2.606a1 1 0 1 0 -1.484 1.34l3.084 3.417a1 1 0 0 0 .734.33h.008a1 1 0 0 0 .732-.319l3.684-3.962z"/><path d="m55.451 69.231 2.066-2.222a1 1 0 1 0 -1.464-1.362l-1.221 1.313a2.989 2.989 0 0 0 -2.381-1.195h-7.251a3 3 0 0 0 -3 3v7.25a3 3 0 0 0 3 3h7.25a3 3 0 0 0 3-3zm-3 7.784h-7.251a1 1 0 0 1 -1-1v-7.25a1 1 0 0 1 1-1h7.25a.989.989 0 0 1 .947.737l-4.352 4.679-2.353-2.606a1 1 0 0 0 -1.484 1.34l3.084 3.417a1 1 0 0 0 .734.33h.008a1 1 0 0 0 .732-.319l3.684-3.962v4.634a1 1 0 0 1 -.999 1z"/><path d="m93.2 67.39h-31a1 1 0 0 0 0 2h31a1 1 0 0 0 0-2z"/><path d="m93.2 75.391h-31a1 1 0 0 0 0 2h31a1 1 0 0 0 0-2z"/><path d="m52.451 86.766h-7.251a3 3 0 0 0 -3 3v7.25a3 3 0 0 0 3 3h7.25a3 3 0 0 0 3-3v-7.25a3 3 0 0 0 -2.999-3zm1 10.25a1 1 0 0 1 -1 1h-7.251a1 1 0 0 1 -1-1v-7.25a1 1 0 0 1 1-1h7.25a1 1 0 0 1 1 1z"/><path d="m93.2 88.391h-31a1 1 0 0 0 0 2h31a1 1 0 0 0 0-2z"/><path d="m93.2 96.391h-31a1 1 0 0 0 0 2h31a1 1 0 0 0 0-2z"/><path d="m101.327 7.021h-71.252a5.006 5.006 0 0 0 -5 5v3.808h-2.948a4.455 4.455 0 0 0 0 8.909h2.948v5.11h-2.948a4.455 4.455 0 0 0 0 8.91h2.948v5.11h-2.948a4.455 4.455 0 0 0 0 8.909h2.948v5.11h-2.948a4.455 4.455 0 0 0 0 8.91h2.948v5.11h-2.948a4.455 4.455 0 0 0 0 8.909h2.948v5.111h-2.948a4.455 4.455 0 0 0 0 8.909h2.948v4.426h-2.948a4.455 4.455 0 0 0 0 8.909h2.948v3.807a5.006 5.006 0 0 0 5 5h71.252a5.006 5.006 0 0 0 5-5v-30.728a1 1 0 0 0 -2 0v30.728a3 3 0 0 1 -3 3h-71.252a3 3 0 0 1 -3-3v-3.807h2.948a4.455 4.455 0 0 0 0-8.909h-2.948v-4.426h2.948a4.455 4.455 0 0 0 0-8.909h-2.948v-5.111h2.948a4.455 4.455 0 0 0 0-8.909h-2.948v-5.107h2.948a4.455 4.455 0 0 0 0-8.91h-2.948v-5.11h2.948a4.455 4.455 0 0 0 0-8.909h-2.948v-5.11h2.948a4.455 4.455 0 0 0 0-8.91h-2.948v-5.11h2.948a4.455 4.455 0 0 0 0-8.909h-2.948v-3.811a3 3 0 0 1 3-3h71.252a3 3 0 0 1 3 3v51.717a1 1 0 0 0 2 0v-51.717a5.006 5.006 0 0 0 -5-5zm-68.85 96.7a2.457 2.457 0 0 1 -2.454 2.455h-7.9a2.455 2.455 0 0 1 0-4.909h7.9a2.456 2.456 0 0 1 2.454 2.449zm0-13.334a2.456 2.456 0 0 1 -2.454 2.454h-7.9a2.455 2.455 0 0 1 0-4.909h7.9a2.457 2.457 0 0 1 2.454 2.45zm0-14.021a2.457 2.457 0 0 1 -2.454 2.455h-7.9a2.455 2.455 0 0 1 0-4.909h7.9a2.456 2.456 0 0 1 2.454 2.449zm0-14.019a2.457 2.457 0 0 1 -2.454 2.453h-7.9a2.455 2.455 0 0 1 0-4.91h7.9a2.457 2.457 0 0 1 2.454 2.452zm0-14.02a2.457 2.457 0 0 1 -2.454 2.455h-7.9a2.455 2.455 0 0 1 0-4.909h7.9a2.456 2.456 0 0 1 2.454 2.449zm0-14.019a2.457 2.457 0 0 1 -2.454 2.455h-7.9a2.455 2.455 0 0 1 0-4.91h7.9a2.457 2.457 0 0 1 2.454 2.447zm0-14.02a2.457 2.457 0 0 1 -2.454 2.455h-7.9a2.455 2.455 0 0 1 0-4.909h7.9a2.456 2.456 0 0 1 2.454 2.449z"/><path d="m105.327 66.848a1 1 0 0 0 -1 1v9.652a1 1 0 0 0 2 0v-9.652a1 1 0 0 0 -1-1z"/></g></svg>